<svg viewBox="0 0 800 150" xmlns="http://www.w3.org/2000/svg" preserveAspectRatio="none">

  <g fill="#07913E">
    <path d="M0 140 Q10 120, 20 140 Q25 110, 40 140 Q45 115, 60 140 Q65 120, 80 140 Q85 118, 100 140
      Q105 122, 120 140 Q125 116, 140 140 Q145 125, 160 140 Q165 120, 180 140 Q185 117, 200 140 
      Q205 123, 220 140 Q225 119, 240 140 Q245 126, 260 140 Q265 122, 280 140 Q285 120, 300 140
      Q305 122, 320 140 Q325 119, 340 140 Q345 121, 360 140 Q365 118, 380 140 Q385 123, 400 140 
      Q405 124, 420 140 Q425 118, 440 140 Q445 121, 460 140 Q465 123, 480 140 Q485 117, 500 140 
      Q505 125, 520 140 Q525 121, 540 140 Q545 120, 560 140 Q565 126, 580 140 Q585 122, 600 140 
      Q605 119, 620 140 Q625 124, 640 140 Q645 118, 660 140 Q665 123, 680 140 Q685 120, 700 140 
      Q705 119, 720 140 Q725 125, 740 140 Q745 122, 760 140 Q765 121, 780 140 Q785 119, 800 140 V150 H0 Z"/>
  </g>
</svg>
